<?xml version="1.0" encoding="UTF-8" standalone="no"?>
<!-- Created with Inkscape (http://www.inkscape.org/) -->

<svg
   version="1.1"
   id="svg228"
   width="668"
   height="668"
   viewBox="0 0 668 668"
   sodipodi:docname="logo-white.svg"
   inkscape:version="1.2.2 (b0a8486541, 2022-12-01)"
   xmlns:inkscape="http://www.inkscape.org/namespaces/inkscape"
   xmlns:sodipodi="http://sodipodi.sourceforge.net/DTD/sodipodi-0.dtd"
   xmlns="http://www.w3.org/2000/svg"
   xmlns:svg="http://www.w3.org/2000/svg">
  <defs
     id="defs232" />
  <sodipodi:namedview
     id="namedview230"
     pagecolor="#ffffff"
     bordercolor="#000000"
     borderopacity="0.25"
     inkscape:showpageshadow="2"
     inkscape:pageopacity="0.0"
     inkscape:pagecheckerboard="0"
     inkscape:deskcolor="#d1d1d1"
     showgrid="false"
     inkscape:zoom="0.31718499"
     inkscape:cx="113.49844"
     inkscape:cy="796.06542"
     inkscape:window-width="2560"
     inkscape:window-height="1383"
     inkscape:window-x="0"
     inkscape:window-y="33"
     inkscape:window-maximized="1"
     inkscape:current-layer="g234" />
  <g
     inkscape:groupmode="layer"
     inkscape:label="Image"
     id="g234"
     transform="translate(-236.5,-180.07108)">
    <path
       style="fill:#ffffff;stroke-width:0.913764"
       d="m 420.33821,848.01987 c -0.33505,-0.33503 -0.60918,-16.37158 -0.60918,-35.63677 v -35.02759 l -23.07252,-0.0201 c -26.49277,-0.023 -27.75195,-0.30377 -34.19494,-7.6234 -9.66905,-10.98463 -5.78396,-25.43906 8.54976,-31.80919 3.68593,-1.63809 11.25657,-1.70727 210.16558,-1.92049 194.44403,-0.20844 206.65374,-0.31452 211.75006,-1.83973 8.05911,-2.41191 15.74795,-6.86006 19.78431,-11.4456 l 3.58939,-4.07776 -0.59386,11.32129 c -0.32662,6.2267 -1.16046,12.94851 -1.85297,14.93733 -4.41572,12.68136 -18.90739,25.25932 -33.21366,28.82762 -4.66797,1.1643 -69.24841,2.23982 -195.7484,3.26 l -82.92403,0.66875 v 34.94275 c 0,30.93276 -0.16489,35.00603 -1.43684,35.49412 -1.99971,0.76735 -2.80925,0.25476 -22.31946,-14.13223 l -17.34486,-12.79026 -19.28021,13.74022 c -10.60411,7.55713 -19.58593,13.74023 -19.9596,13.74023 -0.37367,0 -0.95353,-0.27413 -1.28857,-0.60919 z m -43.55606,-34.0898 c -27.11631,-2.27913 -48.3409,-19.19261 -54.57123,-43.48683 -1.53732,-5.99458 -1.62522,-19.16068 -1.62522,-243.45892 V 289.86271 l 2.58013,-7.30133 c 3.60027,-10.18817 8.0738,-17.21887 15.74996,-24.75303 9.60364,-9.42599 25.03797,-16.83198 35.0784,-16.83198 h 2.8877 l -0.15513,237.01146 -0.15513,237.01146 -7.22823,2.38143 c -31.47088,10.36854 -41.64736,42.11239 -20.80961,64.91219 9.77156,10.69166 18.62694,14.18312 38.15685,15.04432 l 13.10667,0.57796 -2.8e-4,8.22387 -2.9e-4,8.22386 -7.6238,0.10999 c -4.19309,0.0605 -11.11895,-0.18379 -15.39079,-0.54284 z m 19.18903,-335.3752 V 240.0626 l 8.90919,-0.11661 c 4.90007,-0.0642 9.93719,-0.22844 11.19361,-0.36512 1.25642,-0.13667 81.64476,-0.5461 178.64075,-0.90982 164.66265,-0.61745 176.75018,-0.55779 182.29581,0.89985 15.48815,4.07096 30.0442,16.05132 37.23456,30.6459 2.10463,4.27184 4.35368,10.02855 4.99789,12.79269 0.89995,3.86133 1.17131,21.64431 1.17131,76.75613 0,89.72524 -0.56532,193.78997 -1.44795,266.5417 -0.74501,61.40827 -0.79117,61.91288 -6.4814,70.85424 -3.76234,5.91197 -12.04676,13.29941 -18.1129,16.15178 l -5.0257,2.36314 -43.86065,0.56863 c -24.12335,0.31275 -112.63276,0.62115 -196.68758,0.68533 l -152.82694,0.11668 z M 618.1403,649.9266 c 47.51994,-6.3262 86.15202,-28.82238 116.16526,-67.64521 15.64095,-20.23192 26.25183,-43.96787 31.45997,-70.37416 1.26587,-6.41826 1.61839,-12.73788 1.60557,-28.78355 -0.0143,-17.91977 -0.28311,-21.79163 -2.09342,-30.15419 -5.36168,-24.76785 -18.45255,-53.56741 -32.60514,-71.73043 -6.39489,-8.20702 -21.83074,-23.48606 -30.13372,-29.82759 -21.36834,-16.32044 -44.39136,-27.0851 -69.38252,-32.44055 -9.3054,-1.99409 -14.12855,-2.43389 -30.86747,-2.81466 -21.63215,-0.49208 -23.97676,-0.24602 -45.79598,4.80603 -28.5291,6.60565 -52.48781,20.16327 -76.93659,43.53645 -13.87506,13.26465 -23.08195,25.52498 -31.41003,41.82707 -22.55546,44.15197 -24.76264,96.20983 -5.96954,140.79495 4.42212,10.49115 14.66264,28.29028 21.27241,36.97378 15.53358,20.40705 32.43612,34.43233 59.79903,49.61965 14.41238,7.99934 33.9415,14.12671 52.73445,16.5457 9.60778,1.2367 31.67501,1.06223 42.15772,-0.33329 z m -38.50266,-19.42885 c -20.6086,-2.34002 -44.66731,-11.28465 -63.96345,-23.78054 -36.69373,-23.76232 -59.22532,-61.71847 -65.41093,-110.18962 -4.10373,-32.15703 4.85494,-66.08996 25.79067,-97.68803 7.14389,-10.78222 23.31608,-27.85389 34.06951,-35.96443 9.04501,-6.82199 27.90214,-16.48313 39.81689,-20.39949 16.72399,-5.49718 25.59953,-6.82585 45.68817,-6.83953 21.46293,-0.0146 33.90502,1.8254 51.57217,7.62677 23.09197,7.58274 38.04368,16.93387 56.27113,35.19323 14.57017,14.5957 21.77876,24.46749 29.23632,40.03757 5.94869,12.41984 8.87992,21.22532 12.08483,36.30333 2.11495,9.95001 2.43299,13.60067 2.46774,28.32667 0.0335,14.22254 -0.29355,18.49938 -2.06178,26.95602 -5.60263,26.79482 -16.78334,49.95375 -34.01007,70.44603 -21.63582,25.73716 -55.67604,43.87224 -92.37665,49.21407 -8.90606,1.29629 -30.71687,1.71828 -39.17455,0.75795 z m 21.82173,-28.68389 c 4.94615,-1.72424 5.921,-4.96594 5.69188,-18.92724 -0.21089,-12.85114 -0.91259,-15.82971 -4.08514,-17.34098 -3.88413,-1.85024 -5.30657,-1.97122 -8.32891,-0.70841 -4.92442,2.05755 -5.3603,3.77759 -4.82004,19.0202 0.51004,14.38961 1.08486,16.21185 5.71134,18.10543 2.46409,1.00854 2.51402,1.00725 5.83087,-0.149 z m -73.7706,-32.62858 c 4.36049,-2.29476 22.79661,-14.44786 56.23505,-37.07018 6.12668,-4.14492 16.34196,-10.38734 22.7006,-13.87205 17.93098,-9.82662 22.11832,-14.20167 26.47589,-27.66261 2.53977,-7.84563 16.25699,-32.40987 35.80048,-64.11009 6.04186,-9.80011 11.29169,-18.78583 11.66628,-19.96825 1.44684,-4.56711 0.78758,-8.66083 -1.74568,-10.83984 -3.93335,-3.38332 -7.58306,-2.77609 -15.27501,2.54146 -3.68266,2.54585 -13.27484,9.0642 -21.31595,14.48521 -8.04112,5.421 -21.63536,14.76176 -30.20944,20.75725 -8.57407,5.99549 -20.20152,13.307 -25.83877,16.2478 -12.23311,6.38169 -16.2629,10.41558 -22.5333,22.5562 -4.10878,7.95536 -18.88552,32.87753 -35.10737,59.21146 -10.37564,16.8434 -16.52241,28.80663 -16.52241,32.15695 0,3.75466 4.34273,8.14014 8.06079,8.14014 1.49534,0 4.91931,-1.15804 7.60884,-2.57345 z m 67.47693,-70.46763 c -4.86778,-1.48071 -8.3233,-3.91341 -10.73471,-7.55729 -3.60982,-5.45481 -3.5828,-13.40068 0.0644,-18.91187 3.03934,-4.59274 8.37278,-7.35079 14.27129,-7.38001 12.57142,-0.0623 20.90109,12.79106 15.70399,24.23246 -3.45849,7.61386 -11.96257,11.85016 -19.3049,9.61671 z M 510.75133,490.16 c 5.3666,-2.77519 6.1226,-9.3025 1.5722,-13.57445 -2.17394,-2.04091 -2.90123,-2.14262 -15.32038,-2.14262 -14.08895,0 -16.86405,0.69959 -18.69232,4.7122 -2.31943,5.09058 0.18309,10.45919 5.66757,12.15855 4.55259,1.41063 23.38326,0.59917 26.77293,-1.15368 z m 202.00784,1.12669 c 4.35652,-1.65065 6.68427,-4.47802 6.68427,-8.11898 0,-7.22786 -4.11286,-9.16863 -19.44682,-9.17656 -14.08551,-0.007 -18.87312,2.30939 -18.87312,9.13253 0,6.94489 4.25811,9.05264 18.3861,9.10105 5.87249,0.0201 11.83479,-0.402 13.24957,-0.93804 z M 602.69574,400.96057 c 2.89884,-2.58948 2.99338,-2.90553 3.30682,-11.05372 0.66578,-17.30773 -1.48999,-22.83112 -8.91093,-22.83112 -2.50983,0 -4.42384,0.66939 -6.14351,2.14857 -2.75838,2.37268 -2.75136,2.31354 -2.3796,20.05172 0.19103,9.11427 0.37733,10.03507 2.44962,12.10736 3.19802,3.19803 7.81119,3.031 11.6776,-0.42281 z"
       id="path292" />
  </g>
</svg>
